<?xml version="1.0" standalone="no"?>
<!DOCTYPE svg PUBLIC "-//W3C//DTD SVG 20010904//EN"
 "http://www.w3.org/TR/2001/REC-SVG-20010904/DTD/svg10.dtd">
<svg version="1.0" xmlns="http://www.w3.org/2000/svg"
 width="500.000000pt" height="500.000000pt" viewBox="0 0 500.000000 500.000000"
 preserveAspectRatio="xMidYMid meet">
<metadata>
Created by potrace 1.14, written by Peter Selinger 2001-2017
</metadata>
<g transform="translate(0.000000,500.000000) scale(0.100000,-0.100000)"
fill="#000000" stroke="none">
<path d="M0 2500 l0 -2500 2500 0 2500 0 0 2500 0 2500 -2500 0 -2500 0 0
-2500z m2413 475 c131 -478 242 -873 246 -877 3 -4 73 119 154 272 l148 279
-255 520 c-254 518 -283 573 -338 644 l-30 37 294 0 293 0 17 -62 c16 -60 415
-888 428 -888 8 0 404 752 446 848 19 42 34 83 34 90 0 8 18 12 54 12 l54 0
-48 -72 c-39 -60 -510 -939 -510 -952 0 -10 496 -1016 524 -1061 16 -27 42
-66 58 -86 15 -20 28 -40 28 -43 0 -3 -130 -6 -288 -6 l-289 0 -18 63 c-17 59
-414 887 -425 887 -3 0 -74 -130 -158 -288 l-152 -289 30 -100 c24 -81 63
-178 108 -265 2 -5 -122 -8 -277 -8 l-280 0 -6 48 c-14 115 -64 317 -171 690
l-15 52 -367 -2 -367 -3 -82 -300 c-45 -165 -87 -331 -93 -370 -21 -126 -14
-115 -71 -115 -37 0 -50 3 -46 13 3 6 19 47 36 89 17 42 147 497 288 1010 243
882 257 938 257 1021 l1 87 274 -2 274 -3 240 -870z m-1336 -1748 c14 -31 23
-61 19 -65 -4 -4 -12 1 -17 11 -13 23 -68 23 -85 0 -26 -36 -25 -3 2 57 17 38
32 60 41 58 8 -2 26 -29 40 -61z m183 8 c0 -54 0 -55 30 -55 17 0 30 -4 30
-10 0 -5 -18 -10 -40 -10 l-40 0 0 65 c0 37 4 65 10 65 6 0 10 -25 10 -55z
m220 -10 c0 -37 -4 -65 -10 -65 -6 0 -10 28 -10 65 0 37 4 65 10 65 6 0 10
-28 10 -65z m240 52 c0 -9 -9 -12 -29 -9 -43 6 -47 -15 -6 -32 27 -12 35 -21
35 -40 0 -19 -7 -27 -26 -32 -29 -7 -78 11 -69 26 4 6 13 5 24 -2 19 -12 51
-5 51 11 0 5 -14 14 -30 20 -32 11 -46 32 -36 56 7 20 86 21 86 2z m240 3 c0
-5 -9 -10 -20 -10 -18 0 -20 -7 -20 -55 0 -30 -4 -55 -10 -55 -5 0 -10 25 -10
55 0 48 -3 55 -19 55 -11 0 -23 5 -26 10 -4 6 15 10 49 10 31 0 56 -4 56 -10z
m230 0 c0 -5 -16 -10 -35 -10 -24 0 -35 -5 -35 -15 0 -10 10 -15 29 -15 17 0
33 -4 36 -10 4 -6 -8 -10 -29 -10 -29 0 -36 -4 -36 -20 0 -17 7 -20 40 -20 22
0 40 -4 40 -10 0 -5 -22 -10 -50 -10 l-50 0 0 65 0 65 45 0 c25 0 45 -4 45
-10z m250 -5 c14 -17 6 -65 -11 -65 -7 0 -5 -10 5 -25 12 -18 13 -25 4 -25 -7
0 -19 9 -26 20 -7 11 -21 20 -32 20 -13 0 -20 -7 -20 -20 0 -11 -4 -20 -10
-20 -6 0 -10 28 -10 65 l0 65 44 0 c26 0 48 -6 56 -15z m354 -6 l14 -21 14 21
c7 11 19 21 27 21 11 0 10 -5 -3 -25 -21 -32 -20 -41 5 -76 16 -23 17 -29 6
-29 -8 0 -23 12 -32 27 l-17 26 -17 -26 c-8 -15 -22 -27 -29 -27 -10 0 -7 10
8 36 l23 36 -22 29 c-17 22 -18 29 -7 29 8 0 22 -10 30 -21z m310 -40 c26 -60
27 -91 2 -56 -17 22 -72 23 -84 1 -5 -9 -14 -15 -19 -13 -14 6 44 129 61 129
7 0 25 -28 40 -61z m192 9 l17 -53 18 40 c10 22 19 46 19 53 0 6 7 12 15 12
15 0 14 -2 -32 -117 -11 -28 -31 -10 -55 52 -19 48 -23 65 -13 65 7 0 21 -24
31 -52z m244 -13 c0 -37 -4 -65 -10 -65 -6 0 -10 28 -10 65 0 37 4 65 10 65 6
0 10 -28 10 -65z m250 55 c0 -5 -16 -10 -35 -10 -24 0 -35 -5 -35 -15 0 -10
10 -15 30 -15 17 0 30 -4 30 -10 0 -5 -13 -10 -30 -10 -23 0 -30 -4 -30 -20 0
-16 7 -20 35 -20 19 0 35 -4 35 -10 0 -5 -22 -10 -50 -10 l-50 0 0 65 0 65 50
0 c28 0 50 -4 50 -10z m234 4 c19 -7 21 -55 4 -72 -8 -8 -8 -15 2 -27 7 -8 10
-19 6 -23 -4 -4 -16 3 -26 16 -23 28 -50 29 -50 2 0 -11 -4 -20 -10 -20 -6 0
-10 28 -10 65 l0 65 34 0 c19 0 41 -3 50 -6z"/>
<path d="M1698 3734 c-8 -13 -338 -1227 -338 -1242 0 -9 78 -12 345 -12 190 0
345 3 345 8 -1 25 -348 1253 -352 1246z"/>
<path d="M1023 1243 c-3 -10 -8 -21 -10 -25 -2 -5 7 -8 20 -8 20 0 24 4 20 20
-8 28 -22 35 -30 13z"/>
<path d="M2360 1245 c0 -20 5 -25 24 -25 26 0 51 24 41 40 -3 5 -19 10 -36 10
-24 0 -29 -4 -29 -25z"/>
<path d="M3050 1241 c-14 -27 -9 -34 18 -29 19 3 19 5 8 27 l-13 24 -13 -22z"/>
<path d="M3960 1244 c0 -22 4 -25 28 -22 19 2 28 9 30 26 3 19 -1 22 -27 22
-27 0 -31 -4 -31 -26z"/>
</g>
</svg>
